<svg width="24" height="25" viewBox="0 0 24 25" fill="none" xmlns="http://www.w3.org/2000/svg">
<g clip-path="url(#clip0_6014_136976)">
<path d="M12 24.5C18.6274 24.5 24 19.1274 24 12.5C24 5.87258 18.6274 0.5 12 0.5C5.37258 0.5 0 5.87258 0 12.5C0 19.1274 5.37258 24.5 12 24.5Z" fill="#F0F0F0"/>
<path d="M6.78223 16.6738L7.82571 23.7536C9.12565 24.236 10.5318 24.4999 11.9996 24.4999C17.1591 24.4999 21.5577 21.2434 23.2532 16.6738H6.78223Z" fill="black"/>
<path d="M6.78223 8.32611L7.82571 1.2463C9.12565 0.763906 10.5318 0.5 11.9996 0.5C17.1591 0.5 21.5577 3.7565 23.2532 8.32611H6.78223Z" fill="#6DA544"/>
<path d="M0 12.5002C0 17.6598 3.25655 22.0583 7.82611 23.7538V1.24658C3.25655 2.9421 0 7.34061 0 12.5002Z" fill="#A2001D"/>
</g>
<defs>
<clipPath id="clip0_6014_136976">
<rect width="24" height="24" fill="white" transform="translate(0 0.5)"/>
</clipPath>
</defs>
</svg>
