<svg xmlns="http://www.w3.org/2000/svg" width="24" height="24" fill="none"  xmlns:v="https://vecta.io/nano"><path d="M12 24c6.627 0 12-5.373 12-12S18.627 0 12 0 0 5.373 0 12s5.373 12 12 12z" fill="#338af3"/><path d="M18.782 12.13H5.217c0 .937.816 1.696 1.752 1.696h-.056c0 .936.76 1.696 1.696 1.696 0 .937.76 1.696 1.696 1.696h3.39c.937 0 1.696-.76 1.696-1.696.937 0 1.696-.76 1.696-1.696h-.056c.936 0 1.752-.76 1.752-1.696z" fill="#ffda44"/><path d="M16.696 9.913c0 2.593-2.102 4.696-4.696 4.696s-4.696-2.102-4.696-4.696" fill="#338af3"/><path d="M15.587 9.913l-1.466.69.78 1.42-1.59-.305-.202 1.608L12 12.143l-1.108 1.182-.202-1.608-1.59.304.78-1.42-1.466-.69 1.466-.69-.78-1.42 1.59.304.202-1.608L12 7.684 13.11 6.5 13.3 8.11l1.59-.304-.78 1.42 1.466.69z" fill="#ffda44"/></svg>