<svg xmlns="http://www.w3.org/2000/svg" width="24" height="24" fill="none"  xmlns:v="https://vecta.io/nano"><path d="M12 24c6.627 0 12-5.373 12-12S18.627 0 12 0 0 5.373 0 12s5.373 12 12 12z" fill="#d80027"/><path d="M11.5 9.805l.985 1.357 1.595-.517L13.102 12l.985 1.357-1.594-.52-.986 1.356.001-1.676-1.594-.52 1.595-.517.001-1.676zM8.822 15.4a3.392 3.392 0 1 1 0-6.783c.584 0 1.133.148 1.613.408a4.16 4.16 0 0 0-2.918-1.19c-2.305 0-4.174 1.87-4.174 4.174s1.87 4.174 4.174 4.174a4.16 4.16 0 0 0 2.918-1.19 3.38 3.38 0 0 1-1.613.408z" fill="#f0f0f0"/></svg>